<?xml version="1.0" encoding="UTF-8"?>
<svg xmlns="http://www.w3.org/2000/svg"
 width="600" height="600" viewBox="0 0 6000 6000">
  <g fill="#CC0000">
    <path d="M 4775 4901 c-93-51-644-343-1210-641-947-499-1105-585-1500-818-388-227-1091-669-1082-679 4-4 62 13 712 212 259 79 502 153 540 164 80 23 70 15 449 365 239 220 240 221 378 293 76 40 138 70 138 67 0-3-76-90-168-192-92-103-253-284-357-401-105-118-334-377-510-575-424-477-979-1111-1035-1181-20-25 171 132 460 380 409 351 536 462 774 678 65 59 121 106 123 103 2-2-28-60-66-130 l-70-126 67 56c216 182 750 701 1137 1105 61 63 162 168 225 234 372 388 579 604 760 795 112 118 229 241 259 273 30 31 53 57 51 57-3 0-36-18-75-39z"/>
    <path d="M 4235 3617 c-11-8-137-76-280-152-459-244-470-250-590-359-658-599-904-830-872-820 12 4 83 33 157 64 74 32 137 56 139 54 4-4 8 1-348-395-430-477-413-458-384-438 66 44 840 727 1028 908 44 42 132 126 195 186 211 200 813 790 945 924 41 42 44 51 10 28z"/>
    <path d="M 3633 2732 l-253-117-147-135c-280-257-526-491-520-496 1-1 99 28 217 66 118 37 216 67 218 65 3-3-311-313-376-370-23-21-40-40-38-42 4-4 47 11 259 91 37 14 67 24 67 21 0-3-82-100-182-217-259-302-396-464-453-533-63-77-77-89 305 265 85 79 200 187 255 240 55 52 188 178 295 280 182 172 249 237 582 557 69 67 117 118 105 113-12-4-89-36-172-70-240-98-496-200-503-200-4 1 130 136 298 300 168 165 303 300 300 300-3 0-119-53-257-118z"/>
  </g>
</svg>
